<mxfile host="app.diagrams.net" modified="2022-07-31T01:46:12.598Z" agent="5.0 (Windows NT 10.0; Win64; x64) AppleWebKit/537.36 (KHTML, like Gecko) Chrome/103.0.5060.134 Safari/537.36" etag="uw5OQ6roQP_ge2RGRQag" version="20.2.2" type="github">
  <diagram id="cACyjv_Zyp3BJuKKMofZ" name="Page-1">
    <mxGraphModel dx="1767" dy="1025" grid="1" gridSize="10" guides="1" tooltips="1" connect="1" arrows="1" fold="1" page="1" pageScale="1" pageWidth="850" pageHeight="1100" math="0" shadow="0">
      <root>
        <mxCell id="0" />
        <mxCell id="1" parent="0" />
        <mxCell id="-4hbQ1SKNkJyl-mxLNsM-4" style="edgeStyle=orthogonalEdgeStyle;rounded=0;orthogonalLoop=1;jettySize=auto;html=1;exitX=1;exitY=0.25;exitDx=0;exitDy=0;entryX=0.5;entryY=1;entryDx=0;entryDy=0;" edge="1" parent="1" source="-4hbQ1SKNkJyl-mxLNsM-1" target="-4hbQ1SKNkJyl-mxLNsM-2">
          <mxGeometry relative="1" as="geometry" />
        </mxCell>
        <mxCell id="-4hbQ1SKNkJyl-mxLNsM-22" style="edgeStyle=orthogonalEdgeStyle;rounded=0;orthogonalLoop=1;jettySize=auto;html=1;exitX=0.5;exitY=1;exitDx=0;exitDy=0;entryX=0.5;entryY=0;entryDx=0;entryDy=0;" edge="1" parent="1" source="-4hbQ1SKNkJyl-mxLNsM-1" target="-4hbQ1SKNkJyl-mxLNsM-21">
          <mxGeometry relative="1" as="geometry" />
        </mxCell>
        <mxCell id="-4hbQ1SKNkJyl-mxLNsM-25" style="edgeStyle=orthogonalEdgeStyle;rounded=0;orthogonalLoop=1;jettySize=auto;html=1;exitX=0.25;exitY=1;exitDx=0;exitDy=0;entryX=0.75;entryY=0;entryDx=0;entryDy=0;" edge="1" parent="1" source="-4hbQ1SKNkJyl-mxLNsM-1" target="-4hbQ1SKNkJyl-mxLNsM-23">
          <mxGeometry relative="1" as="geometry" />
        </mxCell>
        <mxCell id="-4hbQ1SKNkJyl-mxLNsM-32" style="edgeStyle=orthogonalEdgeStyle;rounded=0;orthogonalLoop=1;jettySize=auto;html=1;exitX=1;exitY=0.5;exitDx=0;exitDy=0;startArrow=classic;startFill=1;" edge="1" parent="1" source="-4hbQ1SKNkJyl-mxLNsM-1" target="-4hbQ1SKNkJyl-mxLNsM-31">
          <mxGeometry relative="1" as="geometry" />
        </mxCell>
        <mxCell id="-4hbQ1SKNkJyl-mxLNsM-35" style="edgeStyle=orthogonalEdgeStyle;rounded=0;orthogonalLoop=1;jettySize=auto;html=1;exitX=1;exitY=0.75;exitDx=0;exitDy=0;entryX=0.5;entryY=0;entryDx=0;entryDy=0;" edge="1" parent="1" source="-4hbQ1SKNkJyl-mxLNsM-1" target="-4hbQ1SKNkJyl-mxLNsM-33">
          <mxGeometry relative="1" as="geometry" />
        </mxCell>
        <mxCell id="-4hbQ1SKNkJyl-mxLNsM-37" style="edgeStyle=orthogonalEdgeStyle;rounded=0;orthogonalLoop=1;jettySize=auto;html=1;exitX=0.75;exitY=0;exitDx=0;exitDy=0;entryX=0;entryY=0.5;entryDx=0;entryDy=0;" edge="1" parent="1" source="-4hbQ1SKNkJyl-mxLNsM-1" target="-4hbQ1SKNkJyl-mxLNsM-36">
          <mxGeometry relative="1" as="geometry">
            <Array as="points">
              <mxPoint x="645" y="520" />
              <mxPoint x="740" y="520" />
              <mxPoint x="740" y="320" />
            </Array>
          </mxGeometry>
        </mxCell>
        <mxCell id="-4hbQ1SKNkJyl-mxLNsM-49" style="edgeStyle=orthogonalEdgeStyle;rounded=0;orthogonalLoop=1;jettySize=auto;html=1;exitX=0.25;exitY=0;exitDx=0;exitDy=0;startArrow=classic;startFill=1;" edge="1" parent="1" source="-4hbQ1SKNkJyl-mxLNsM-1" target="-4hbQ1SKNkJyl-mxLNsM-12">
          <mxGeometry relative="1" as="geometry" />
        </mxCell>
        <mxCell id="-4hbQ1SKNkJyl-mxLNsM-1" value="nrf5340" style="rounded=0;whiteSpace=wrap;html=1;" vertex="1" parent="1">
          <mxGeometry x="570" y="580" width="100" height="90" as="geometry" />
        </mxCell>
        <mxCell id="-4hbQ1SKNkJyl-mxLNsM-2" value="Antenna" style="rounded=0;whiteSpace=wrap;html=1;" vertex="1" parent="1">
          <mxGeometry x="770" y="455" width="70" height="35" as="geometry" />
        </mxCell>
        <mxCell id="-4hbQ1SKNkJyl-mxLNsM-19" style="edgeStyle=orthogonalEdgeStyle;rounded=0;orthogonalLoop=1;jettySize=auto;html=1;exitX=1;exitY=0.5;exitDx=0;exitDy=0;entryX=0;entryY=0.5;entryDx=0;entryDy=0;" edge="1" parent="1" source="-4hbQ1SKNkJyl-mxLNsM-5" target="-4hbQ1SKNkJyl-mxLNsM-18">
          <mxGeometry relative="1" as="geometry" />
        </mxCell>
        <mxCell id="-4hbQ1SKNkJyl-mxLNsM-5" value="Battery Charger and Power Switch" style="rounded=0;whiteSpace=wrap;html=1;" vertex="1" parent="1">
          <mxGeometry x="255" y="515" width="80" height="70" as="geometry" />
        </mxCell>
        <mxCell id="-4hbQ1SKNkJyl-mxLNsM-8" style="edgeStyle=orthogonalEdgeStyle;rounded=0;orthogonalLoop=1;jettySize=auto;html=1;exitX=1;exitY=0.5;exitDx=0;exitDy=0;" edge="1" parent="1" source="-4hbQ1SKNkJyl-mxLNsM-7" target="-4hbQ1SKNkJyl-mxLNsM-5">
          <mxGeometry relative="1" as="geometry" />
        </mxCell>
        <mxCell id="-4hbQ1SKNkJyl-mxLNsM-7" value="Battery" style="rounded=0;whiteSpace=wrap;html=1;" vertex="1" parent="1">
          <mxGeometry x="120" y="515" width="80" height="70" as="geometry" />
        </mxCell>
        <mxCell id="-4hbQ1SKNkJyl-mxLNsM-16" style="edgeStyle=orthogonalEdgeStyle;rounded=0;orthogonalLoop=1;jettySize=auto;html=1;exitX=0.25;exitY=1;exitDx=0;exitDy=0;entryX=0.5;entryY=0;entryDx=0;entryDy=0;" edge="1" parent="1" source="-4hbQ1SKNkJyl-mxLNsM-9" target="-4hbQ1SKNkJyl-mxLNsM-5">
          <mxGeometry relative="1" as="geometry">
            <Array as="points">
              <mxPoint x="405" y="130" />
              <mxPoint x="360" y="130" />
              <mxPoint x="360" y="348" />
              <mxPoint x="295" y="348" />
            </Array>
          </mxGeometry>
        </mxCell>
        <mxCell id="-4hbQ1SKNkJyl-mxLNsM-9" value="USB C Port" style="rounded=0;whiteSpace=wrap;html=1;" vertex="1" parent="1">
          <mxGeometry x="385" y="50" width="80" height="70" as="geometry" />
        </mxCell>
        <mxCell id="-4hbQ1SKNkJyl-mxLNsM-52" style="edgeStyle=orthogonalEdgeStyle;rounded=0;orthogonalLoop=1;jettySize=auto;html=1;exitX=0.5;exitY=0;exitDx=0;exitDy=0;entryX=0.5;entryY=1;entryDx=0;entryDy=0;" edge="1" parent="1" source="-4hbQ1SKNkJyl-mxLNsM-11" target="-4hbQ1SKNkJyl-mxLNsM-9">
          <mxGeometry relative="1" as="geometry" />
        </mxCell>
        <mxCell id="-4hbQ1SKNkJyl-mxLNsM-11" value="USB C Protection" style="rounded=0;whiteSpace=wrap;html=1;" vertex="1" parent="1">
          <mxGeometry x="385" y="160" width="80" height="70" as="geometry" />
        </mxCell>
        <mxCell id="-4hbQ1SKNkJyl-mxLNsM-73" style="edgeStyle=orthogonalEdgeStyle;rounded=0;orthogonalLoop=1;jettySize=auto;html=1;exitX=0;exitY=0.5;exitDx=0;exitDy=0;entryX=0.5;entryY=1;entryDx=0;entryDy=0;startArrow=classic;startFill=1;" edge="1" parent="1" source="-4hbQ1SKNkJyl-mxLNsM-12" target="-4hbQ1SKNkJyl-mxLNsM-70">
          <mxGeometry relative="1" as="geometry" />
        </mxCell>
        <mxCell id="-4hbQ1SKNkJyl-mxLNsM-12" value="USB C Controller" style="rounded=0;whiteSpace=wrap;html=1;" vertex="1" parent="1">
          <mxGeometry x="540" y="437.5" width="80" height="70" as="geometry" />
        </mxCell>
        <mxCell id="-4hbQ1SKNkJyl-mxLNsM-20" style="edgeStyle=orthogonalEdgeStyle;rounded=0;orthogonalLoop=1;jettySize=auto;html=1;exitX=1;exitY=0.5;exitDx=0;exitDy=0;entryX=0;entryY=0.25;entryDx=0;entryDy=0;" edge="1" parent="1" source="-4hbQ1SKNkJyl-mxLNsM-18" target="-4hbQ1SKNkJyl-mxLNsM-1">
          <mxGeometry relative="1" as="geometry" />
        </mxCell>
        <mxCell id="-4hbQ1SKNkJyl-mxLNsM-28" style="edgeStyle=orthogonalEdgeStyle;rounded=0;orthogonalLoop=1;jettySize=auto;html=1;exitX=0.5;exitY=1;exitDx=0;exitDy=0;entryX=1;entryY=0.5;entryDx=0;entryDy=0;" edge="1" parent="1" source="-4hbQ1SKNkJyl-mxLNsM-18" target="-4hbQ1SKNkJyl-mxLNsM-27">
          <mxGeometry relative="1" as="geometry" />
        </mxCell>
        <mxCell id="-4hbQ1SKNkJyl-mxLNsM-90" style="edgeStyle=orthogonalEdgeStyle;rounded=0;orthogonalLoop=1;jettySize=auto;html=1;exitX=1;exitY=0.25;exitDx=0;exitDy=0;entryX=0;entryY=0.5;entryDx=0;entryDy=0;startArrow=none;startFill=0;jumpStyle=arc;" edge="1" parent="1" source="-4hbQ1SKNkJyl-mxLNsM-18" target="-4hbQ1SKNkJyl-mxLNsM-89">
          <mxGeometry relative="1" as="geometry">
            <Array as="points">
              <mxPoint x="630" y="532" />
              <mxPoint x="630" y="430" />
              <mxPoint x="810" y="430" />
              <mxPoint x="810" y="415" />
            </Array>
          </mxGeometry>
        </mxCell>
        <mxCell id="-4hbQ1SKNkJyl-mxLNsM-18" value="Power Regulation" style="rounded=0;whiteSpace=wrap;html=1;" vertex="1" parent="1">
          <mxGeometry x="380" y="515" width="80" height="70" as="geometry" />
        </mxCell>
        <mxCell id="-4hbQ1SKNkJyl-mxLNsM-21" value="Keys" style="rounded=0;whiteSpace=wrap;html=1;" vertex="1" parent="1">
          <mxGeometry x="430" y="830" width="380" height="90" as="geometry" />
        </mxCell>
        <mxCell id="-4hbQ1SKNkJyl-mxLNsM-23" value="RGBW Neopixels" style="rounded=0;whiteSpace=wrap;html=1;" vertex="1" parent="1">
          <mxGeometry x="90" y="830" width="290" height="90" as="geometry" />
        </mxCell>
        <mxCell id="-4hbQ1SKNkJyl-mxLNsM-29" style="edgeStyle=orthogonalEdgeStyle;rounded=0;orthogonalLoop=1;jettySize=auto;html=1;exitX=0.5;exitY=1;exitDx=0;exitDy=0;" edge="1" parent="1" source="-4hbQ1SKNkJyl-mxLNsM-27" target="-4hbQ1SKNkJyl-mxLNsM-23">
          <mxGeometry relative="1" as="geometry" />
        </mxCell>
        <mxCell id="-4hbQ1SKNkJyl-mxLNsM-27" value="LED Driver" style="rounded=0;whiteSpace=wrap;html=1;" vertex="1" parent="1">
          <mxGeometry x="170" y="640" width="80" height="70" as="geometry" />
        </mxCell>
        <mxCell id="-4hbQ1SKNkJyl-mxLNsM-31" value="Data Connector for Modular Numpad" style="rounded=0;whiteSpace=wrap;html=1;" vertex="1" parent="1">
          <mxGeometry x="860" y="750" width="70" height="170" as="geometry" />
        </mxCell>
        <mxCell id="-4hbQ1SKNkJyl-mxLNsM-33" value="Audio jack with mic input" style="rounded=0;whiteSpace=wrap;html=1;" vertex="1" parent="1">
          <mxGeometry x="700" y="680" width="70" height="50" as="geometry" />
        </mxCell>
        <mxCell id="-4hbQ1SKNkJyl-mxLNsM-36" value="UART Connector for Modular Display" style="rounded=0;whiteSpace=wrap;html=1;" vertex="1" parent="1">
          <mxGeometry x="860" y="280" width="70" height="80" as="geometry" />
        </mxCell>
        <mxCell id="-4hbQ1SKNkJyl-mxLNsM-38" value="USB Connector for Modular Display" style="rounded=0;whiteSpace=wrap;html=1;" vertex="1" parent="1">
          <mxGeometry x="860" y="180" width="70" height="80" as="geometry" />
        </mxCell>
        <mxCell id="-4hbQ1SKNkJyl-mxLNsM-40" style="edgeStyle=orthogonalEdgeStyle;rounded=0;orthogonalLoop=1;jettySize=auto;html=1;exitX=0.5;exitY=1;exitDx=0;exitDy=0;" edge="1" parent="1" source="-4hbQ1SKNkJyl-mxLNsM-11" target="-4hbQ1SKNkJyl-mxLNsM-11">
          <mxGeometry relative="1" as="geometry" />
        </mxCell>
        <mxCell id="-4hbQ1SKNkJyl-mxLNsM-51" style="edgeStyle=orthogonalEdgeStyle;rounded=0;orthogonalLoop=1;jettySize=auto;html=1;exitX=0.5;exitY=0;exitDx=0;exitDy=0;entryX=0.5;entryY=1;entryDx=0;entryDy=0;" edge="1" parent="1" source="-4hbQ1SKNkJyl-mxLNsM-41" target="-4hbQ1SKNkJyl-mxLNsM-11">
          <mxGeometry relative="1" as="geometry" />
        </mxCell>
        <mxCell id="-4hbQ1SKNkJyl-mxLNsM-71" style="edgeStyle=orthogonalEdgeStyle;rounded=0;orthogonalLoop=1;jettySize=auto;html=1;exitX=0.5;exitY=1;exitDx=0;exitDy=0;entryX=0.5;entryY=0;entryDx=0;entryDy=0;" edge="1" parent="1" source="-4hbQ1SKNkJyl-mxLNsM-41" target="-4hbQ1SKNkJyl-mxLNsM-70">
          <mxGeometry relative="1" as="geometry" />
        </mxCell>
        <mxCell id="-4hbQ1SKNkJyl-mxLNsM-41" value="USB Hub" style="rounded=0;whiteSpace=wrap;html=1;" vertex="1" parent="1">
          <mxGeometry x="385" y="260" width="80" height="70" as="geometry" />
        </mxCell>
        <mxCell id="-4hbQ1SKNkJyl-mxLNsM-55" style="edgeStyle=orthogonalEdgeStyle;rounded=0;orthogonalLoop=1;jettySize=auto;html=1;exitX=0.5;exitY=1;exitDx=0;exitDy=0;entryX=0.5;entryY=0;entryDx=0;entryDy=0;" edge="1" parent="1" source="-4hbQ1SKNkJyl-mxLNsM-46" target="-4hbQ1SKNkJyl-mxLNsM-47">
          <mxGeometry relative="1" as="geometry" />
        </mxCell>
        <mxCell id="-4hbQ1SKNkJyl-mxLNsM-46" value="Side USB C Port" style="rounded=0;whiteSpace=wrap;html=1;" vertex="1" parent="1">
          <mxGeometry x="500" y="50" width="80" height="70" as="geometry" />
        </mxCell>
        <mxCell id="-4hbQ1SKNkJyl-mxLNsM-54" style="edgeStyle=orthogonalEdgeStyle;rounded=0;orthogonalLoop=1;jettySize=auto;html=1;exitX=0.5;exitY=1;exitDx=0;exitDy=0;entryX=1;entryY=0.25;entryDx=0;entryDy=0;" edge="1" parent="1" source="-4hbQ1SKNkJyl-mxLNsM-47" target="-4hbQ1SKNkJyl-mxLNsM-41">
          <mxGeometry relative="1" as="geometry" />
        </mxCell>
        <mxCell id="-4hbQ1SKNkJyl-mxLNsM-47" value="USB C Protection" style="rounded=0;whiteSpace=wrap;html=1;" vertex="1" parent="1">
          <mxGeometry x="500" y="160" width="80" height="70" as="geometry" />
        </mxCell>
        <mxCell id="-4hbQ1SKNkJyl-mxLNsM-58" style="edgeStyle=orthogonalEdgeStyle;rounded=0;orthogonalLoop=1;jettySize=auto;html=1;exitX=0.5;exitY=1;exitDx=0;exitDy=0;entryX=0.5;entryY=0;entryDx=0;entryDy=0;" edge="1" parent="1" source="-4hbQ1SKNkJyl-mxLNsM-56" target="-4hbQ1SKNkJyl-mxLNsM-57">
          <mxGeometry relative="1" as="geometry" />
        </mxCell>
        <mxCell id="-4hbQ1SKNkJyl-mxLNsM-56" value="Side USB C Port" style="rounded=0;whiteSpace=wrap;html=1;" vertex="1" parent="1">
          <mxGeometry x="610" y="50" width="80" height="70" as="geometry" />
        </mxCell>
        <mxCell id="-4hbQ1SKNkJyl-mxLNsM-59" style="edgeStyle=orthogonalEdgeStyle;rounded=0;orthogonalLoop=1;jettySize=auto;html=1;exitX=0.5;exitY=1;exitDx=0;exitDy=0;entryX=1;entryY=0.5;entryDx=0;entryDy=0;" edge="1" parent="1" source="-4hbQ1SKNkJyl-mxLNsM-57" target="-4hbQ1SKNkJyl-mxLNsM-41">
          <mxGeometry relative="1" as="geometry">
            <Array as="points">
              <mxPoint x="650" y="250" />
              <mxPoint x="600" y="250" />
              <mxPoint x="600" y="295" />
            </Array>
          </mxGeometry>
        </mxCell>
        <mxCell id="-4hbQ1SKNkJyl-mxLNsM-57" value="USB C Protection" style="rounded=0;whiteSpace=wrap;html=1;" vertex="1" parent="1">
          <mxGeometry x="610" y="160" width="80" height="70" as="geometry" />
        </mxCell>
        <mxCell id="-4hbQ1SKNkJyl-mxLNsM-106" style="edgeStyle=orthogonalEdgeStyle;rounded=0;jumpStyle=arc;orthogonalLoop=1;jettySize=auto;html=1;exitX=1;exitY=0.75;exitDx=0;exitDy=0;entryX=0;entryY=0.25;entryDx=0;entryDy=0;startArrow=none;startFill=0;" edge="1" parent="1" source="-4hbQ1SKNkJyl-mxLNsM-61" target="-4hbQ1SKNkJyl-mxLNsM-104">
          <mxGeometry relative="1" as="geometry">
            <Array as="points">
              <mxPoint x="1050" y="878" />
              <mxPoint x="1050" y="940" />
              <mxPoint x="1260" y="940" />
              <mxPoint x="1260" y="1002" />
            </Array>
          </mxGeometry>
        </mxCell>
        <mxCell id="-4hbQ1SKNkJyl-mxLNsM-61" value="Data Connector for Modular Numpad" style="rounded=0;whiteSpace=wrap;html=1;" vertex="1" parent="1">
          <mxGeometry x="930" y="750" width="70" height="170" as="geometry" />
        </mxCell>
        <mxCell id="-4hbQ1SKNkJyl-mxLNsM-69" style="edgeStyle=orthogonalEdgeStyle;rounded=0;orthogonalLoop=1;jettySize=auto;html=1;exitX=1;exitY=0.5;exitDx=0;exitDy=0;entryX=0;entryY=0.75;entryDx=0;entryDy=0;" edge="1" parent="1" source="-4hbQ1SKNkJyl-mxLNsM-62" target="-4hbQ1SKNkJyl-mxLNsM-65">
          <mxGeometry relative="1" as="geometry" />
        </mxCell>
        <mxCell id="-4hbQ1SKNkJyl-mxLNsM-62" value="UART Connector for Modular Display" style="rounded=0;whiteSpace=wrap;html=1;" vertex="1" parent="1">
          <mxGeometry x="930" y="280" width="70" height="80" as="geometry" />
        </mxCell>
        <mxCell id="-4hbQ1SKNkJyl-mxLNsM-76" style="edgeStyle=orthogonalEdgeStyle;rounded=0;orthogonalLoop=1;jettySize=auto;html=1;exitX=1;exitY=0.5;exitDx=0;exitDy=0;entryX=0;entryY=0.5;entryDx=0;entryDy=0;startArrow=classic;startFill=1;" edge="1" parent="1" source="-4hbQ1SKNkJyl-mxLNsM-63" target="-4hbQ1SKNkJyl-mxLNsM-75">
          <mxGeometry relative="1" as="geometry" />
        </mxCell>
        <mxCell id="-4hbQ1SKNkJyl-mxLNsM-63" value="USB Connector for Modular Display" style="rounded=0;whiteSpace=wrap;html=1;" vertex="1" parent="1">
          <mxGeometry x="930" y="180" width="70" height="80" as="geometry" />
        </mxCell>
        <mxCell id="-4hbQ1SKNkJyl-mxLNsM-64" value="Display" style="rounded=0;whiteSpace=wrap;html=1;" vertex="1" parent="1">
          <mxGeometry x="1480" y="180" width="110" height="150" as="geometry" />
        </mxCell>
        <mxCell id="-4hbQ1SKNkJyl-mxLNsM-66" style="edgeStyle=orthogonalEdgeStyle;rounded=0;orthogonalLoop=1;jettySize=auto;html=1;exitX=1;exitY=0.5;exitDx=0;exitDy=0;entryX=0;entryY=0.25;entryDx=0;entryDy=0;" edge="1" parent="1" source="-4hbQ1SKNkJyl-mxLNsM-65" target="-4hbQ1SKNkJyl-mxLNsM-64">
          <mxGeometry relative="1" as="geometry" />
        </mxCell>
        <mxCell id="-4hbQ1SKNkJyl-mxLNsM-88" style="edgeStyle=orthogonalEdgeStyle;rounded=0;orthogonalLoop=1;jettySize=auto;html=1;exitX=0.5;exitY=1;exitDx=0;exitDy=0;startArrow=none;startFill=0;" edge="1" parent="1" source="-4hbQ1SKNkJyl-mxLNsM-65" target="-4hbQ1SKNkJyl-mxLNsM-87">
          <mxGeometry relative="1" as="geometry" />
        </mxCell>
        <mxCell id="-4hbQ1SKNkJyl-mxLNsM-65" value="TI AM625 MPU" style="rounded=0;whiteSpace=wrap;html=1;" vertex="1" parent="1">
          <mxGeometry x="1270" y="210" width="120" height="60" as="geometry" />
        </mxCell>
        <mxCell id="-4hbQ1SKNkJyl-mxLNsM-72" style="edgeStyle=orthogonalEdgeStyle;rounded=0;orthogonalLoop=1;jettySize=auto;html=1;exitX=1;exitY=0.5;exitDx=0;exitDy=0;entryX=0;entryY=0.5;entryDx=0;entryDy=0;startArrow=classic;startFill=1;" edge="1" parent="1" source="-4hbQ1SKNkJyl-mxLNsM-70" target="-4hbQ1SKNkJyl-mxLNsM-38">
          <mxGeometry relative="1" as="geometry">
            <Array as="points">
              <mxPoint x="710" y="415" />
              <mxPoint x="710" y="220" />
            </Array>
          </mxGeometry>
        </mxCell>
        <mxCell id="-4hbQ1SKNkJyl-mxLNsM-70" value="USB Multiplexer" style="rounded=0;whiteSpace=wrap;html=1;" vertex="1" parent="1">
          <mxGeometry x="385" y="380" width="80" height="70" as="geometry" />
        </mxCell>
        <mxCell id="-4hbQ1SKNkJyl-mxLNsM-78" style="edgeStyle=orthogonalEdgeStyle;rounded=0;orthogonalLoop=1;jettySize=auto;html=1;exitX=0.5;exitY=1;exitDx=0;exitDy=0;entryX=0;entryY=0.25;entryDx=0;entryDy=0;startArrow=classic;startFill=1;" edge="1" parent="1" source="-4hbQ1SKNkJyl-mxLNsM-74" target="-4hbQ1SKNkJyl-mxLNsM-65">
          <mxGeometry relative="1" as="geometry" />
        </mxCell>
        <mxCell id="-4hbQ1SKNkJyl-mxLNsM-74" value="USB C Controller" style="rounded=0;whiteSpace=wrap;html=1;" vertex="1" parent="1">
          <mxGeometry x="1210" y="100" width="80" height="70" as="geometry" />
        </mxCell>
        <mxCell id="-4hbQ1SKNkJyl-mxLNsM-77" style="edgeStyle=orthogonalEdgeStyle;rounded=0;orthogonalLoop=1;jettySize=auto;html=1;exitX=1;exitY=0.5;exitDx=0;exitDy=0;entryX=0;entryY=0.5;entryDx=0;entryDy=0;startArrow=classic;startFill=1;" edge="1" parent="1" source="-4hbQ1SKNkJyl-mxLNsM-75" target="-4hbQ1SKNkJyl-mxLNsM-74">
          <mxGeometry relative="1" as="geometry" />
        </mxCell>
        <mxCell id="-4hbQ1SKNkJyl-mxLNsM-75" value="USB C Protection" style="rounded=0;whiteSpace=wrap;html=1;" vertex="1" parent="1">
          <mxGeometry x="1060" y="100" width="80" height="70" as="geometry" />
        </mxCell>
        <mxCell id="-4hbQ1SKNkJyl-mxLNsM-86" value="" style="edgeStyle=orthogonalEdgeStyle;rounded=0;orthogonalLoop=1;jettySize=auto;html=1;startArrow=none;startFill=0;" edge="1" parent="1" source="-4hbQ1SKNkJyl-mxLNsM-83" target="-4hbQ1SKNkJyl-mxLNsM-85">
          <mxGeometry relative="1" as="geometry" />
        </mxCell>
        <mxCell id="-4hbQ1SKNkJyl-mxLNsM-83" value="LED Driver" style="rounded=0;whiteSpace=wrap;html=1;" vertex="1" parent="1">
          <mxGeometry x="1225" y="540" width="80" height="70" as="geometry" />
        </mxCell>
        <mxCell id="-4hbQ1SKNkJyl-mxLNsM-85" value="RGBW Neopixels" style="rounded=0;whiteSpace=wrap;html=1;" vertex="1" parent="1">
          <mxGeometry x="1380" y="530" width="140" height="90" as="geometry" />
        </mxCell>
        <mxCell id="-4hbQ1SKNkJyl-mxLNsM-87" value="Keys" style="rounded=0;whiteSpace=wrap;html=1;" vertex="1" parent="1">
          <mxGeometry x="1225" y="425" width="210" height="90" as="geometry" />
        </mxCell>
        <mxCell id="-4hbQ1SKNkJyl-mxLNsM-89" value="Power Connector for Modular Display" style="rounded=0;whiteSpace=wrap;html=1;" vertex="1" parent="1">
          <mxGeometry x="860" y="375" width="70" height="80" as="geometry" />
        </mxCell>
        <mxCell id="-4hbQ1SKNkJyl-mxLNsM-95" style="edgeStyle=orthogonalEdgeStyle;rounded=0;jumpStyle=arc;orthogonalLoop=1;jettySize=auto;html=1;exitX=1;exitY=0.5;exitDx=0;exitDy=0;startArrow=none;startFill=0;" edge="1" parent="1" source="-4hbQ1SKNkJyl-mxLNsM-91" target="-4hbQ1SKNkJyl-mxLNsM-94">
          <mxGeometry relative="1" as="geometry" />
        </mxCell>
        <mxCell id="-4hbQ1SKNkJyl-mxLNsM-91" value="Power Connector for Modular Display" style="rounded=0;whiteSpace=wrap;html=1;" vertex="1" parent="1">
          <mxGeometry x="930" y="375" width="70" height="80" as="geometry" />
        </mxCell>
        <mxCell id="-4hbQ1SKNkJyl-mxLNsM-96" style="edgeStyle=orthogonalEdgeStyle;rounded=0;jumpStyle=arc;orthogonalLoop=1;jettySize=auto;html=1;exitX=0.5;exitY=1;exitDx=0;exitDy=0;entryX=0;entryY=0.5;entryDx=0;entryDy=0;startArrow=none;startFill=0;" edge="1" parent="1" source="-4hbQ1SKNkJyl-mxLNsM-94" target="-4hbQ1SKNkJyl-mxLNsM-83">
          <mxGeometry relative="1" as="geometry" />
        </mxCell>
        <mxCell id="-4hbQ1SKNkJyl-mxLNsM-97" style="edgeStyle=orthogonalEdgeStyle;rounded=0;jumpStyle=arc;orthogonalLoop=1;jettySize=auto;html=1;exitX=0.5;exitY=0;exitDx=0;exitDy=0;entryX=0.25;entryY=1;entryDx=0;entryDy=0;startArrow=none;startFill=0;" edge="1" parent="1" source="-4hbQ1SKNkJyl-mxLNsM-94" target="-4hbQ1SKNkJyl-mxLNsM-65">
          <mxGeometry relative="1" as="geometry">
            <Array as="points">
              <mxPoint x="1110" y="340" />
              <mxPoint x="1180" y="340" />
              <mxPoint x="1180" y="330" />
              <mxPoint x="1300" y="330" />
            </Array>
          </mxGeometry>
        </mxCell>
        <mxCell id="-4hbQ1SKNkJyl-mxLNsM-98" style="edgeStyle=orthogonalEdgeStyle;rounded=0;jumpStyle=arc;orthogonalLoop=1;jettySize=auto;html=1;exitX=0.75;exitY=0;exitDx=0;exitDy=0;entryX=0.5;entryY=1;entryDx=0;entryDy=0;startArrow=none;startFill=0;" edge="1" parent="1" source="-4hbQ1SKNkJyl-mxLNsM-94" target="-4hbQ1SKNkJyl-mxLNsM-64">
          <mxGeometry relative="1" as="geometry" />
        </mxCell>
        <mxCell id="-4hbQ1SKNkJyl-mxLNsM-94" value="Power Regulation" style="rounded=0;whiteSpace=wrap;html=1;" vertex="1" parent="1">
          <mxGeometry x="1070" y="385" width="80" height="70" as="geometry" />
        </mxCell>
        <mxCell id="-4hbQ1SKNkJyl-mxLNsM-100" style="edgeStyle=orthogonalEdgeStyle;rounded=0;jumpStyle=arc;orthogonalLoop=1;jettySize=auto;html=1;exitX=0;exitY=0.5;exitDx=0;exitDy=0;entryX=1;entryY=0.5;entryDx=0;entryDy=0;startArrow=none;startFill=0;" edge="1" parent="1" source="-4hbQ1SKNkJyl-mxLNsM-99" target="-4hbQ1SKNkJyl-mxLNsM-61">
          <mxGeometry relative="1" as="geometry" />
        </mxCell>
        <mxCell id="-4hbQ1SKNkJyl-mxLNsM-99" value="Switch Reading IC" style="rounded=0;whiteSpace=wrap;html=1;" vertex="1" parent="1">
          <mxGeometry x="1115" y="780" width="160" height="110" as="geometry" />
        </mxCell>
        <mxCell id="-4hbQ1SKNkJyl-mxLNsM-102" style="edgeStyle=orthogonalEdgeStyle;rounded=0;jumpStyle=arc;orthogonalLoop=1;jettySize=auto;html=1;exitX=0;exitY=0.5;exitDx=0;exitDy=0;entryX=1;entryY=0.5;entryDx=0;entryDy=0;startArrow=none;startFill=0;" edge="1" parent="1" source="-4hbQ1SKNkJyl-mxLNsM-101" target="-4hbQ1SKNkJyl-mxLNsM-99">
          <mxGeometry relative="1" as="geometry" />
        </mxCell>
        <mxCell id="-4hbQ1SKNkJyl-mxLNsM-101" value="Keys" style="rounded=0;whiteSpace=wrap;html=1;" vertex="1" parent="1">
          <mxGeometry x="1360" y="730" width="120" height="210" as="geometry" />
        </mxCell>
        <mxCell id="-4hbQ1SKNkJyl-mxLNsM-110" style="edgeStyle=orthogonalEdgeStyle;rounded=0;jumpStyle=arc;orthogonalLoop=1;jettySize=auto;html=1;exitX=1;exitY=0.5;exitDx=0;exitDy=0;entryX=0;entryY=0.5;entryDx=0;entryDy=0;startArrow=none;startFill=0;" edge="1" parent="1" source="-4hbQ1SKNkJyl-mxLNsM-103" target="-4hbQ1SKNkJyl-mxLNsM-104">
          <mxGeometry relative="1" as="geometry" />
        </mxCell>
        <mxCell id="-4hbQ1SKNkJyl-mxLNsM-103" value="LED Driver" style="rounded=0;whiteSpace=wrap;html=1;" vertex="1" parent="1">
          <mxGeometry x="1130" y="990" width="80" height="70" as="geometry" />
        </mxCell>
        <mxCell id="-4hbQ1SKNkJyl-mxLNsM-104" value="RGBW Neopixels" style="rounded=0;whiteSpace=wrap;html=1;" vertex="1" parent="1">
          <mxGeometry x="1340" y="980" width="140" height="90" as="geometry" />
        </mxCell>
        <mxCell id="-4hbQ1SKNkJyl-mxLNsM-107" value="Power Connector for Modular Numpad" style="rounded=0;whiteSpace=wrap;html=1;" vertex="1" parent="1">
          <mxGeometry x="860" y="920" width="70" height="80" as="geometry" />
        </mxCell>
        <mxCell id="-4hbQ1SKNkJyl-mxLNsM-109" style="edgeStyle=orthogonalEdgeStyle;rounded=0;jumpStyle=arc;orthogonalLoop=1;jettySize=auto;html=1;exitX=1;exitY=0.5;exitDx=0;exitDy=0;entryX=0;entryY=0.5;entryDx=0;entryDy=0;startArrow=none;startFill=0;" edge="1" parent="1" source="-4hbQ1SKNkJyl-mxLNsM-108" target="-4hbQ1SKNkJyl-mxLNsM-103">
          <mxGeometry relative="1" as="geometry" />
        </mxCell>
        <mxCell id="-4hbQ1SKNkJyl-mxLNsM-108" value="Power Connector for Modular Numpad" style="rounded=0;whiteSpace=wrap;html=1;" vertex="1" parent="1">
          <mxGeometry x="930" y="920" width="70" height="80" as="geometry" />
        </mxCell>
      </root>
    </mxGraphModel>
  </diagram>
</mxfile>
